<svg xmlns="http://www.w3.org/2000/svg" xmlns:xlink="http://www.w3.org/1999/xlink" viewBox="0,0,256,256" width="64px" height="64px"><g fill="#ffffff" fill-rule="nonzero" stroke="none" stroke-width="1" stroke-linecap="butt" stroke-linejoin="miter" stroke-miterlimit="10" stroke-dasharray="" stroke-dashoffset="0" font-family="none" font-weight="none" font-size="none" text-anchor="none" style="mix-blend-mode: normal"><g transform="scale(8,8)"><path d="M21,4h4v4h-4zM25,22.754c0,1.35 -0.317,5.799 -4.242,7.149l-3.758,-1.903c2.806,-1.224 4,-3.2 4,-5.246c0,-2.828 0,-11.754 0,-11.754l4,0.002c0,0 0,8.713 0,11.752zM14,4v6.302c-0.469,-0.191 -1.48,-0.228 -1.978,-0.228c-3.749,0 -7.022,1.937 -7.022,6.926c0,5.969 4.504,6.997 7.65,6.997c1.242,0 4,-0.122 5.35,-0.513v-19.484zM12.609,20.666c-1.769,0 -3.609,-0.803 -3.609,-3.666c0,-2.863 1.84,-3.469 3.609,-3.469c0.432,0 0.918,0.081 1.391,0.189v6.757c-0.472,0.107 -0.958,0.189 -1.391,0.189z"></path></g></g></svg>